<svg width="1440" height="85" viewBox="0 0 1440 85" fill="none" xmlns="http://www.w3.org/2000/svg">
<g clip-path="url(#clip0_133_5198)">
<rect width="1440" height="84" transform="translate(0 1)" fill="white"/>
<path d="M511.148 43.574C511.148 42.638 511.286 41.762 511.562 40.946C511.838 40.118 512.234 39.404 512.75 38.804C513.278 38.192 513.92 37.712 514.676 37.364C515.444 37.016 516.308 36.842 517.268 36.842C518.024 36.842 518.678 36.944 519.23 37.148C519.782 37.34 520.244 37.586 520.616 37.886C521 38.174 521.312 38.492 521.552 38.84C521.792 39.188 521.972 39.518 522.092 39.83C522.224 40.13 522.314 40.394 522.362 40.622C522.41 40.838 522.434 40.958 522.434 40.982H521.642C521.558 40.442 521.384 39.962 521.12 39.542C520.856 39.11 520.526 38.744 520.13 38.444C519.734 38.144 519.29 37.916 518.798 37.76C518.318 37.604 517.808 37.526 517.268 37.526C516.428 37.526 515.678 37.688 515.018 38.012C514.358 38.336 513.8 38.774 513.344 39.326C512.888 39.866 512.54 40.502 512.3 41.234C512.06 41.966 511.94 42.746 511.94 43.574C511.94 44.402 512.06 45.182 512.3 45.914C512.54 46.646 512.888 47.288 513.344 47.84C513.8 48.38 514.358 48.812 515.018 49.136C515.678 49.46 516.428 49.622 517.268 49.622C517.892 49.622 518.474 49.496 519.014 49.244C519.566 48.98 520.046 48.638 520.454 48.218C520.862 47.786 521.186 47.294 521.426 46.742C521.678 46.178 521.822 45.596 521.858 44.996H522.65C522.578 45.764 522.386 46.472 522.074 47.12C521.774 47.768 521.384 48.332 520.904 48.812C520.436 49.28 519.89 49.646 519.266 49.91C518.642 50.174 517.976 50.306 517.268 50.306C516.308 50.306 515.444 50.132 514.676 49.784C513.92 49.436 513.278 48.962 512.75 48.362C512.234 47.75 511.838 47.036 511.562 46.22C511.286 45.392 511.148 44.51 511.148 43.574ZM525.67 45.374C525.67 44.714 525.76 44.096 525.94 43.52C526.132 42.932 526.408 42.416 526.768 41.972C527.128 41.528 527.572 41.18 528.1 40.928C528.628 40.664 529.234 40.532 529.918 40.532C530.602 40.532 531.208 40.664 531.736 40.928C532.264 41.18 532.708 41.528 533.068 41.972C533.428 42.416 533.698 42.932 533.878 43.52C534.07 44.096 534.166 44.714 534.166 45.374C534.166 46.034 534.07 46.658 533.878 47.246C533.698 47.834 533.428 48.35 533.068 48.794C532.708 49.226 532.264 49.574 531.736 49.838C531.208 50.09 530.602 50.216 529.918 50.216C529.234 50.216 528.628 50.09 528.1 49.838C527.572 49.574 527.128 49.226 526.768 48.794C526.408 48.35 526.132 47.834 525.94 47.246C525.76 46.658 525.67 46.034 525.67 45.374ZM526.354 45.374C526.354 45.926 526.432 46.46 526.588 46.976C526.744 47.48 526.972 47.93 527.272 48.326C527.572 48.722 527.944 49.04 528.388 49.28C528.832 49.508 529.342 49.622 529.918 49.622C530.494 49.622 531.004 49.508 531.448 49.28C531.892 49.04 532.264 48.722 532.564 48.326C532.864 47.93 533.092 47.48 533.248 46.976C533.404 46.46 533.482 45.926 533.482 45.374C533.482 44.822 533.404 44.294 533.248 43.79C533.092 43.274 532.864 42.818 532.564 42.422C532.264 42.026 531.892 41.714 531.448 41.486C531.004 41.246 530.494 41.126 529.918 41.126C529.342 41.126 528.832 41.246 528.388 41.486C527.944 41.714 527.572 42.026 527.272 42.422C526.972 42.818 526.744 43.274 526.588 43.79C526.432 44.294 526.354 44.822 526.354 45.374ZM537.69 40.748H538.374V42.728H538.41C538.53 42.38 538.698 42.074 538.914 41.81C539.142 41.534 539.4 41.3 539.688 41.108C539.988 40.916 540.312 40.772 540.66 40.676C541.008 40.58 541.362 40.532 541.722 40.532C542.262 40.532 542.718 40.598 543.09 40.73C543.474 40.862 543.786 41.036 544.026 41.252C544.266 41.468 544.452 41.714 544.584 41.99C544.728 42.254 544.83 42.524 544.89 42.8C544.95 43.076 544.986 43.346 544.998 43.61C545.01 43.862 545.016 44.084 545.016 44.276V50H544.332V44.15C544.332 43.922 544.314 43.634 544.278 43.286C544.242 42.938 544.134 42.608 543.954 42.296C543.786 41.972 543.522 41.696 543.162 41.468C542.814 41.24 542.328 41.126 541.704 41.126C541.176 41.126 540.708 41.222 540.3 41.414C539.892 41.606 539.544 41.876 539.256 42.224C538.968 42.56 538.746 42.968 538.59 43.448C538.446 43.916 538.374 44.432 538.374 44.996V50H537.69V40.748ZM552.346 41.342H550.33V47.804C550.33 48.176 550.372 48.47 550.456 48.686C550.54 48.902 550.666 49.07 550.834 49.19C551.014 49.298 551.224 49.364 551.464 49.388C551.716 49.412 552.004 49.418 552.328 49.406V50C551.98 50.024 551.638 50.024 551.302 50C550.978 49.964 550.69 49.874 550.438 49.73C550.186 49.574 549.982 49.346 549.826 49.046C549.682 48.746 549.622 48.332 549.646 47.804V41.342H547.936V40.748H549.646V37.868H550.33V40.748H552.346V41.342ZM561.66 48.164H561.624C561.516 48.44 561.36 48.704 561.156 48.956C560.952 49.196 560.7 49.412 560.4 49.604C560.112 49.796 559.782 49.946 559.41 50.054C559.038 50.162 558.63 50.216 558.186 50.216C557.202 50.216 556.44 50.006 555.9 49.586C555.36 49.154 555.09 48.494 555.09 47.606C555.09 47.066 555.198 46.628 555.414 46.292C555.63 45.944 555.9 45.674 556.224 45.482C556.56 45.278 556.926 45.134 557.322 45.05C557.73 44.966 558.12 44.906 558.492 44.87L559.554 44.78C560.046 44.744 560.43 44.69 560.706 44.618C560.994 44.534 561.21 44.426 561.354 44.294C561.498 44.15 561.588 43.97 561.624 43.754C561.66 43.538 561.678 43.268 561.678 42.944C561.678 42.692 561.63 42.458 561.534 42.242C561.438 42.026 561.288 41.834 561.084 41.666C560.88 41.498 560.616 41.366 560.292 41.27C559.968 41.174 559.572 41.126 559.104 41.126C558.276 41.126 557.604 41.33 557.088 41.738C556.584 42.146 556.308 42.764 556.26 43.592H555.576C555.624 42.572 555.948 41.81 556.548 41.306C557.16 40.79 558.024 40.532 559.14 40.532C560.256 40.532 561.066 40.754 561.57 41.198C562.086 41.63 562.344 42.2 562.344 42.908V48.29C562.344 48.422 562.344 48.554 562.344 48.686C562.356 48.818 562.38 48.938 562.416 49.046C562.452 49.154 562.512 49.244 562.596 49.316C562.68 49.376 562.8 49.406 562.956 49.406C563.076 49.406 563.244 49.388 563.46 49.352V49.928C563.28 49.976 563.094 50 562.902 50C562.626 50 562.404 49.964 562.236 49.892C562.08 49.82 561.96 49.724 561.876 49.604C561.792 49.484 561.732 49.346 561.696 49.19C561.672 49.022 561.66 48.842 561.66 48.65V48.164ZM561.66 44.744C561.492 44.948 561.234 45.086 560.886 45.158C560.55 45.23 560.172 45.284 559.752 45.32L558.6 45.428C558.264 45.464 557.928 45.518 557.592 45.59C557.256 45.65 556.95 45.758 556.674 45.914C556.41 46.07 556.194 46.286 556.026 46.562C555.858 46.826 555.774 47.174 555.774 47.606C555.774 48.29 555.99 48.8 556.422 49.136C556.854 49.46 557.448 49.622 558.204 49.622C558.984 49.622 559.602 49.484 560.058 49.208C560.514 48.92 560.862 48.596 561.102 48.236C561.342 47.864 561.492 47.51 561.552 47.174C561.624 46.826 561.66 46.592 561.66 46.472V44.744ZM573.408 43.61C573.372 43.202 573.264 42.842 573.084 42.53C572.916 42.218 572.694 41.96 572.418 41.756C572.142 41.552 571.818 41.396 571.446 41.288C571.086 41.18 570.696 41.126 570.276 41.126C569.7 41.126 569.19 41.246 568.746 41.486C568.302 41.714 567.93 42.026 567.63 42.422C567.33 42.806 567.102 43.25 566.946 43.754C566.79 44.246 566.712 44.756 566.712 45.284C566.712 45.908 566.784 46.484 566.928 47.012C567.072 47.54 567.294 48.002 567.594 48.398C567.894 48.782 568.266 49.082 568.71 49.298C569.154 49.514 569.676 49.622 570.276 49.622C570.708 49.622 571.104 49.55 571.464 49.406C571.836 49.262 572.16 49.064 572.436 48.812C572.724 48.56 572.958 48.26 573.138 47.912C573.318 47.552 573.438 47.162 573.498 46.742H574.182C574.11 47.294 573.96 47.786 573.732 48.218C573.504 48.65 573.216 49.016 572.868 49.316C572.52 49.604 572.124 49.826 571.68 49.982C571.236 50.138 570.768 50.216 570.276 50.216C569.52 50.216 568.872 50.084 568.332 49.82C567.804 49.544 567.366 49.178 567.018 48.722C566.682 48.266 566.43 47.744 566.262 47.156C566.106 46.556 566.028 45.932 566.028 45.284C566.028 44.636 566.118 44.024 566.298 43.448C566.49 42.872 566.766 42.368 567.126 41.936C567.486 41.504 567.93 41.162 568.458 40.91C568.986 40.658 569.592 40.532 570.276 40.532C570.78 40.532 571.248 40.598 571.68 40.73C572.124 40.85 572.514 41.036 572.85 41.288C573.198 41.54 573.48 41.864 573.696 42.26C573.912 42.644 574.044 43.094 574.092 43.61H573.408ZM581.098 41.342H579.082V47.804C579.082 48.176 579.124 48.47 579.208 48.686C579.292 48.902 579.418 49.07 579.586 49.19C579.766 49.298 579.976 49.364 580.216 49.388C580.468 49.412 580.756 49.418 581.08 49.406V50C580.732 50.024 580.39 50.024 580.054 50C579.73 49.964 579.442 49.874 579.19 49.73C578.938 49.574 578.734 49.346 578.578 49.046C578.434 48.746 578.374 48.332 578.398 47.804V41.342H576.688V40.748H578.398V37.868H579.082V40.748H581.098V41.342ZM592.122 37.148V44.852C592.122 45.104 592.134 45.398 592.158 45.734C592.182 46.07 592.242 46.418 592.338 46.778C592.434 47.126 592.566 47.474 592.734 47.822C592.914 48.158 593.154 48.464 593.454 48.74C593.754 49.004 594.12 49.22 594.552 49.388C594.996 49.544 595.53 49.622 596.154 49.622C596.946 49.622 597.606 49.514 598.134 49.298C598.674 49.07 599.106 48.752 599.43 48.344C599.766 47.924 600.006 47.42 600.15 46.832C600.294 46.244 600.366 45.584 600.366 44.852V37.148H601.158V44.852C601.158 45.62 601.074 46.334 600.906 46.994C600.75 47.654 600.48 48.23 600.096 48.722C599.712 49.214 599.196 49.604 598.548 49.892C597.912 50.168 597.114 50.306 596.154 50.306C595.398 50.306 594.75 50.21 594.21 50.018C593.67 49.826 593.22 49.58 592.86 49.28C592.512 48.968 592.236 48.614 592.032 48.218C591.828 47.822 591.672 47.426 591.564 47.03C591.456 46.622 591.39 46.232 591.366 45.86C591.342 45.476 591.33 45.14 591.33 44.852V37.148H592.122ZM605.542 46.922C605.566 47.354 605.662 47.738 605.83 48.074C605.998 48.398 606.214 48.68 606.478 48.92C606.754 49.148 607.072 49.322 607.432 49.442C607.792 49.562 608.182 49.622 608.602 49.622C608.902 49.622 609.22 49.598 609.556 49.55C609.904 49.49 610.222 49.388 610.51 49.244C610.81 49.1 611.056 48.902 611.248 48.65C611.44 48.386 611.536 48.056 611.536 47.66C611.536 47.144 611.38 46.754 611.068 46.49C610.756 46.226 610.36 46.022 609.88 45.878C609.412 45.734 608.902 45.62 608.35 45.536C607.81 45.44 607.3 45.302 606.82 45.122C606.352 44.942 605.962 44.69 605.65 44.366C605.338 44.03 605.182 43.544 605.182 42.908C605.182 42.452 605.284 42.074 605.488 41.774C605.692 41.462 605.95 41.216 606.262 41.036C606.586 40.856 606.946 40.73 607.342 40.658C607.738 40.574 608.134 40.532 608.53 40.532C609.01 40.532 609.46 40.586 609.88 40.694C610.3 40.802 610.66 40.976 610.96 41.216C611.272 41.456 611.512 41.762 611.68 42.134C611.86 42.506 611.95 42.956 611.95 43.484H611.266C611.266 43.064 611.194 42.704 611.05 42.404C610.918 42.104 610.726 41.864 610.474 41.684C610.234 41.492 609.946 41.354 609.61 41.27C609.274 41.174 608.914 41.126 608.53 41.126C608.218 41.126 607.9 41.156 607.576 41.216C607.264 41.276 606.982 41.378 606.73 41.522C606.478 41.666 606.268 41.852 606.1 42.08C605.944 42.308 605.866 42.584 605.866 42.908C605.866 43.28 605.956 43.58 606.136 43.808C606.316 44.036 606.55 44.222 606.838 44.366C607.138 44.498 607.468 44.606 607.828 44.69C608.2 44.774 608.572 44.858 608.944 44.942C609.4 45.026 609.826 45.128 610.222 45.248C610.63 45.356 610.978 45.512 611.266 45.716C611.566 45.908 611.8 46.16 611.968 46.472C612.136 46.784 612.22 47.18 612.22 47.66C612.22 48.164 612.106 48.578 611.878 48.902C611.65 49.226 611.362 49.49 611.014 49.694C610.666 49.886 610.276 50.018 609.844 50.09C609.424 50.174 609.01 50.216 608.602 50.216C608.074 50.216 607.582 50.144 607.126 50C606.682 49.868 606.292 49.664 605.956 49.388C605.62 49.1 605.356 48.752 605.164 48.344C604.972 47.936 604.87 47.462 604.858 46.922H605.542Z" fill="black"/>
<path d="M653.248 37.832V37.148H663.094V37.832H658.558V50H657.766V37.832H653.248ZM664.309 45.464V45.572C664.309 46.112 664.381 46.628 664.525 47.12C664.669 47.612 664.879 48.044 665.155 48.416C665.443 48.788 665.797 49.082 666.217 49.298C666.649 49.514 667.147 49.622 667.711 49.622C668.635 49.622 669.367 49.382 669.907 48.902C670.447 48.41 670.819 47.732 671.023 46.868H671.707C671.503 47.948 671.059 48.776 670.375 49.352C669.703 49.928 668.809 50.216 667.693 50.216C667.009 50.216 666.409 50.096 665.893 49.856C665.389 49.604 664.963 49.268 664.615 48.848C664.279 48.416 664.027 47.912 663.859 47.336C663.691 46.748 663.607 46.118 663.607 45.446C663.607 44.798 663.691 44.18 663.859 43.592C664.039 42.992 664.303 42.47 664.651 42.026C664.999 41.57 665.431 41.21 665.947 40.946C666.475 40.67 667.093 40.532 667.801 40.532C668.449 40.532 669.019 40.652 669.511 40.892C670.015 41.132 670.435 41.462 670.771 41.882C671.107 42.29 671.359 42.77 671.527 43.322C671.707 43.862 671.797 44.444 671.797 45.068C671.797 45.128 671.791 45.2 671.779 45.284C671.779 45.356 671.779 45.416 671.779 45.464H664.309ZM671.095 44.87C671.071 44.366 670.987 43.892 670.843 43.448C670.699 42.992 670.483 42.596 670.195 42.26C669.919 41.912 669.577 41.636 669.169 41.432C668.773 41.228 668.317 41.126 667.801 41.126C667.249 41.126 666.763 41.234 666.343 41.45C665.923 41.654 665.569 41.93 665.281 42.278C664.993 42.614 664.771 43.01 664.615 43.466C664.459 43.922 664.363 44.39 664.327 44.87H671.095ZM675.977 42.8H676.031C676.115 42.5 676.265 42.218 676.481 41.954C676.709 41.69 676.979 41.462 677.291 41.27C677.615 41.078 677.969 40.934 678.353 40.838C678.749 40.73 679.157 40.682 679.577 40.694V41.378C679.217 41.33 678.803 41.366 678.335 41.486C677.879 41.606 677.441 41.87 677.021 42.278C676.853 42.458 676.703 42.632 676.571 42.8C676.451 42.968 676.349 43.154 676.265 43.358C676.181 43.562 676.115 43.79 676.067 44.042C676.019 44.294 675.989 44.594 675.977 44.942V50H675.293V40.748H675.977V42.8ZM682.241 40.748H682.925V42.638H682.961C683.033 42.35 683.159 42.08 683.339 41.828C683.519 41.564 683.735 41.336 683.987 41.144C684.251 40.952 684.539 40.802 684.851 40.694C685.175 40.586 685.511 40.532 685.859 40.532C686.303 40.532 686.687 40.592 687.011 40.712C687.335 40.82 687.611 40.97 687.839 41.162C688.067 41.342 688.247 41.552 688.379 41.792C688.511 42.02 688.601 42.254 688.649 42.494H688.685C688.961 41.846 689.327 41.36 689.783 41.036C690.251 40.7 690.863 40.532 691.619 40.532C692.039 40.532 692.423 40.598 692.771 40.73C693.131 40.85 693.437 41.042 693.689 41.306C693.953 41.558 694.157 41.882 694.301 42.278C694.445 42.674 694.517 43.142 694.517 43.682V50H693.833V43.664C693.833 43.076 693.743 42.614 693.563 42.278C693.383 41.942 693.167 41.69 692.915 41.522C692.675 41.342 692.429 41.234 692.177 41.198C691.937 41.15 691.751 41.126 691.619 41.126C691.199 41.126 690.809 41.198 690.449 41.342C690.101 41.486 689.795 41.702 689.531 41.99C689.279 42.278 689.081 42.638 688.937 43.07C688.793 43.49 688.721 43.976 688.721 44.528V50H688.037V43.664C688.037 43.088 687.947 42.632 687.767 42.296C687.599 41.948 687.395 41.69 687.155 41.522C686.927 41.354 686.687 41.246 686.435 41.198C686.195 41.15 686.003 41.126 685.859 41.126C685.535 41.126 685.199 41.192 684.851 41.324C684.503 41.456 684.185 41.66 683.897 41.936C683.609 42.212 683.375 42.566 683.195 42.998C683.015 43.43 682.925 43.94 682.925 44.528V50H682.241V40.748ZM704.967 45.374C704.967 44.714 705.057 44.096 705.237 43.52C705.429 42.932 705.705 42.416 706.065 41.972C706.425 41.528 706.869 41.18 707.397 40.928C707.925 40.664 708.531 40.532 709.215 40.532C709.899 40.532 710.505 40.664 711.033 40.928C711.561 41.18 712.005 41.528 712.365 41.972C712.725 42.416 712.995 42.932 713.175 43.52C713.367 44.096 713.463 44.714 713.463 45.374C713.463 46.034 713.367 46.658 713.175 47.246C712.995 47.834 712.725 48.35 712.365 48.794C712.005 49.226 711.561 49.574 711.033 49.838C710.505 50.09 709.899 50.216 709.215 50.216C708.531 50.216 707.925 50.09 707.397 49.838C706.869 49.574 706.425 49.226 706.065 48.794C705.705 48.35 705.429 47.834 705.237 47.246C705.057 46.658 704.967 46.034 704.967 45.374ZM705.651 45.374C705.651 45.926 705.729 46.46 705.885 46.976C706.041 47.48 706.269 47.93 706.569 48.326C706.869 48.722 707.241 49.04 707.685 49.28C708.129 49.508 708.639 49.622 709.215 49.622C709.791 49.622 710.301 49.508 710.745 49.28C711.189 49.04 711.561 48.722 711.861 48.326C712.161 47.93 712.389 47.48 712.545 46.976C712.701 46.46 712.779 45.926 712.779 45.374C712.779 44.822 712.701 44.294 712.545 43.79C712.389 43.274 712.161 42.818 711.861 42.422C711.561 42.026 711.189 41.714 710.745 41.486C710.301 41.246 709.791 41.126 709.215 41.126C708.639 41.126 708.129 41.246 707.685 41.486C707.241 41.714 706.869 42.026 706.569 42.422C706.269 42.818 706.041 43.274 705.885 43.79C705.729 44.294 705.651 44.822 705.651 45.374ZM715.979 41.342V40.748H717.635V38.84C717.635 38.516 717.689 38.24 717.797 38.012C717.905 37.772 718.049 37.58 718.229 37.436C718.421 37.292 718.637 37.184 718.877 37.112C719.129 37.04 719.393 37.004 719.669 37.004C719.873 37.004 720.143 37.034 720.479 37.094V37.688C720.143 37.628 719.873 37.598 719.669 37.598C719.285 37.598 718.961 37.688 718.697 37.868C718.445 38.036 718.319 38.378 718.319 38.894V40.748H720.245V41.342H718.319V50H717.635V41.342H715.979ZM731.097 37.148V44.852C731.097 45.104 731.109 45.398 731.133 45.734C731.157 46.07 731.217 46.418 731.313 46.778C731.409 47.126 731.541 47.474 731.709 47.822C731.889 48.158 732.129 48.464 732.429 48.74C732.729 49.004 733.095 49.22 733.527 49.388C733.971 49.544 734.505 49.622 735.129 49.622C735.921 49.622 736.581 49.514 737.109 49.298C737.649 49.07 738.081 48.752 738.405 48.344C738.741 47.924 738.981 47.42 739.125 46.832C739.269 46.244 739.341 45.584 739.341 44.852V37.148H740.133V44.852C740.133 45.62 740.049 46.334 739.881 46.994C739.725 47.654 739.455 48.23 739.071 48.722C738.687 49.214 738.171 49.604 737.523 49.892C736.887 50.168 736.089 50.306 735.129 50.306C734.373 50.306 733.725 50.21 733.185 50.018C732.645 49.826 732.195 49.58 731.835 49.28C731.487 48.968 731.211 48.614 731.007 48.218C730.803 47.822 730.647 47.426 730.539 47.03C730.431 46.622 730.365 46.232 730.341 45.86C730.317 45.476 730.305 45.14 730.305 44.852V37.148H731.097ZM744.516 46.922C744.54 47.354 744.636 47.738 744.804 48.074C744.972 48.398 745.188 48.68 745.452 48.92C745.728 49.148 746.046 49.322 746.406 49.442C746.766 49.562 747.156 49.622 747.576 49.622C747.876 49.622 748.194 49.598 748.53 49.55C748.878 49.49 749.196 49.388 749.484 49.244C749.784 49.1 750.03 48.902 750.222 48.65C750.414 48.386 750.51 48.056 750.51 47.66C750.51 47.144 750.354 46.754 750.042 46.49C749.73 46.226 749.334 46.022 748.854 45.878C748.386 45.734 747.876 45.62 747.324 45.536C746.784 45.44 746.274 45.302 745.794 45.122C745.326 44.942 744.936 44.69 744.624 44.366C744.312 44.03 744.156 43.544 744.156 42.908C744.156 42.452 744.258 42.074 744.462 41.774C744.666 41.462 744.924 41.216 745.236 41.036C745.56 40.856 745.92 40.73 746.316 40.658C746.712 40.574 747.108 40.532 747.504 40.532C747.984 40.532 748.434 40.586 748.854 40.694C749.274 40.802 749.634 40.976 749.934 41.216C750.246 41.456 750.486 41.762 750.654 42.134C750.834 42.506 750.924 42.956 750.924 43.484H750.24C750.24 43.064 750.168 42.704 750.024 42.404C749.892 42.104 749.7 41.864 749.448 41.684C749.208 41.492 748.92 41.354 748.584 41.27C748.248 41.174 747.888 41.126 747.504 41.126C747.192 41.126 746.874 41.156 746.55 41.216C746.238 41.276 745.956 41.378 745.704 41.522C745.452 41.666 745.242 41.852 745.074 42.08C744.918 42.308 744.84 42.584 744.84 42.908C744.84 43.28 744.93 43.58 745.11 43.808C745.29 44.036 745.524 44.222 745.812 44.366C746.112 44.498 746.442 44.606 746.802 44.69C747.174 44.774 747.546 44.858 747.918 44.942C748.374 45.026 748.8 45.128 749.196 45.248C749.604 45.356 749.952 45.512 750.24 45.716C750.54 45.908 750.774 46.16 750.942 46.472C751.11 46.784 751.194 47.18 751.194 47.66C751.194 48.164 751.08 48.578 750.852 48.902C750.624 49.226 750.336 49.49 749.988 49.694C749.64 49.886 749.25 50.018 748.818 50.09C748.398 50.174 747.984 50.216 747.576 50.216C747.048 50.216 746.556 50.144 746.1 50C745.656 49.868 745.266 49.664 744.93 49.388C744.594 49.1 744.33 48.752 744.138 48.344C743.946 47.936 743.844 47.462 743.832 46.922H744.516ZM755.048 45.464V45.572C755.048 46.112 755.12 46.628 755.264 47.12C755.408 47.612 755.618 48.044 755.894 48.416C756.182 48.788 756.536 49.082 756.956 49.298C757.388 49.514 757.886 49.622 758.45 49.622C759.374 49.622 760.106 49.382 760.646 48.902C761.186 48.41 761.558 47.732 761.762 46.868H762.446C762.242 47.948 761.798 48.776 761.114 49.352C760.442 49.928 759.548 50.216 758.432 50.216C757.748 50.216 757.148 50.096 756.632 49.856C756.128 49.604 755.702 49.268 755.354 48.848C755.018 48.416 754.766 47.912 754.598 47.336C754.43 46.748 754.346 46.118 754.346 45.446C754.346 44.798 754.43 44.18 754.598 43.592C754.778 42.992 755.042 42.47 755.39 42.026C755.738 41.57 756.17 41.21 756.686 40.946C757.214 40.67 757.832 40.532 758.54 40.532C759.188 40.532 759.758 40.652 760.25 40.892C760.754 41.132 761.174 41.462 761.51 41.882C761.846 42.29 762.098 42.77 762.266 43.322C762.446 43.862 762.536 44.444 762.536 45.068C762.536 45.128 762.53 45.2 762.518 45.284C762.518 45.356 762.518 45.416 762.518 45.464H755.048ZM761.834 44.87C761.81 44.366 761.726 43.892 761.582 43.448C761.438 42.992 761.222 42.596 760.934 42.26C760.658 41.912 760.316 41.636 759.908 41.432C759.512 41.228 759.056 41.126 758.54 41.126C757.988 41.126 757.502 41.234 757.082 41.45C756.662 41.654 756.308 41.93 756.02 42.278C755.732 42.614 755.51 43.01 755.354 43.466C755.198 43.922 755.102 44.39 755.066 44.87H761.834Z" fill="black"/>
<path d="M804.634 37.148H810.106C810.466 37.148 810.862 37.19 811.294 37.274C811.738 37.358 812.146 37.532 812.518 37.796C812.902 38.048 813.22 38.414 813.472 38.894C813.724 39.362 813.85 39.98 813.85 40.748C813.85 41.876 813.502 42.746 812.806 43.358C812.11 43.97 811.114 44.276 809.818 44.276H805.426V50H804.634V37.148ZM805.426 43.592H809.944C810.52 43.592 811.006 43.508 811.402 43.34C811.81 43.16 812.134 42.932 812.374 42.656C812.614 42.38 812.788 42.074 812.896 41.738C813.004 41.402 813.058 41.066 813.058 40.73C813.058 40.49 813.022 40.208 812.95 39.884C812.878 39.548 812.734 39.23 812.518 38.93C812.302 38.618 811.996 38.36 811.6 38.156C811.216 37.94 810.7 37.832 810.052 37.832H805.426V43.592ZM817.395 42.8H817.449C817.533 42.5 817.683 42.218 817.899 41.954C818.127 41.69 818.397 41.462 818.709 41.27C819.033 41.078 819.387 40.934 819.771 40.838C820.167 40.73 820.575 40.682 820.995 40.694V41.378C820.635 41.33 820.221 41.366 819.753 41.486C819.297 41.606 818.859 41.87 818.439 42.278C818.271 42.458 818.121 42.632 817.989 42.8C817.869 42.968 817.767 43.154 817.683 43.358C817.599 43.562 817.533 43.79 817.485 44.042C817.437 44.294 817.407 44.594 817.395 44.942V50H816.711V40.748H817.395V42.8ZM823.803 39.002V37.148H824.487V39.002H823.803ZM823.803 50V40.748H824.487V50H823.803ZM832.112 50H831.266L827.54 40.748H828.332L831.68 49.208H831.716L834.848 40.748H835.604L832.112 50ZM844.64 48.164H844.604C844.496 48.44 844.34 48.704 844.136 48.956C843.932 49.196 843.68 49.412 843.38 49.604C843.092 49.796 842.762 49.946 842.39 50.054C842.018 50.162 841.61 50.216 841.166 50.216C840.182 50.216 839.42 50.006 838.88 49.586C838.34 49.154 838.07 48.494 838.07 47.606C838.07 47.066 838.178 46.628 838.394 46.292C838.61 45.944 838.88 45.674 839.204 45.482C839.54 45.278 839.906 45.134 840.302 45.05C840.71 44.966 841.1 44.906 841.472 44.87L842.534 44.78C843.026 44.744 843.41 44.69 843.686 44.618C843.974 44.534 844.19 44.426 844.334 44.294C844.478 44.15 844.568 43.97 844.604 43.754C844.64 43.538 844.658 43.268 844.658 42.944C844.658 42.692 844.61 42.458 844.514 42.242C844.418 42.026 844.268 41.834 844.064 41.666C843.86 41.498 843.596 41.366 843.272 41.27C842.948 41.174 842.552 41.126 842.084 41.126C841.256 41.126 840.584 41.33 840.068 41.738C839.564 42.146 839.288 42.764 839.24 43.592H838.556C838.604 42.572 838.928 41.81 839.528 41.306C840.14 40.79 841.004 40.532 842.12 40.532C843.236 40.532 844.046 40.754 844.55 41.198C845.066 41.63 845.324 42.2 845.324 42.908V48.29C845.324 48.422 845.324 48.554 845.324 48.686C845.336 48.818 845.36 48.938 845.396 49.046C845.432 49.154 845.492 49.244 845.576 49.316C845.66 49.376 845.78 49.406 845.936 49.406C846.056 49.406 846.224 49.388 846.44 49.352V49.928C846.26 49.976 846.074 50 845.882 50C845.606 50 845.384 49.964 845.216 49.892C845.06 49.82 844.94 49.724 844.856 49.604C844.772 49.484 844.712 49.346 844.676 49.19C844.652 49.022 844.64 48.842 844.64 48.65V48.164ZM844.64 44.744C844.472 44.948 844.214 45.086 843.866 45.158C843.53 45.23 843.152 45.284 842.732 45.32L841.58 45.428C841.244 45.464 840.908 45.518 840.572 45.59C840.236 45.65 839.93 45.758 839.654 45.914C839.39 46.07 839.174 46.286 839.006 46.562C838.838 46.826 838.754 47.174 838.754 47.606C838.754 48.29 838.97 48.8 839.402 49.136C839.834 49.46 840.428 49.622 841.184 49.622C841.964 49.622 842.582 49.484 843.038 49.208C843.494 48.92 843.842 48.596 844.082 48.236C844.322 47.864 844.472 47.51 844.532 47.174C844.604 46.826 844.64 46.592 844.64 46.472V44.744ZM856.388 43.61C856.352 43.202 856.244 42.842 856.064 42.53C855.896 42.218 855.674 41.96 855.398 41.756C855.122 41.552 854.798 41.396 854.426 41.288C854.066 41.18 853.676 41.126 853.256 41.126C852.68 41.126 852.17 41.246 851.726 41.486C851.282 41.714 850.91 42.026 850.61 42.422C850.31 42.806 850.082 43.25 849.926 43.754C849.77 44.246 849.692 44.756 849.692 45.284C849.692 45.908 849.764 46.484 849.908 47.012C850.052 47.54 850.274 48.002 850.574 48.398C850.874 48.782 851.246 49.082 851.69 49.298C852.134 49.514 852.656 49.622 853.256 49.622C853.688 49.622 854.084 49.55 854.444 49.406C854.816 49.262 855.14 49.064 855.416 48.812C855.704 48.56 855.938 48.26 856.118 47.912C856.298 47.552 856.418 47.162 856.478 46.742H857.162C857.09 47.294 856.94 47.786 856.712 48.218C856.484 48.65 856.196 49.016 855.848 49.316C855.5 49.604 855.104 49.826 854.66 49.982C854.216 50.138 853.748 50.216 853.256 50.216C852.5 50.216 851.852 50.084 851.312 49.82C850.784 49.544 850.346 49.178 849.998 48.722C849.662 48.266 849.41 47.744 849.242 47.156C849.086 46.556 849.008 45.932 849.008 45.284C849.008 44.636 849.098 44.024 849.278 43.448C849.47 42.872 849.746 42.368 850.106 41.936C850.466 41.504 850.91 41.162 851.438 40.91C851.966 40.658 852.572 40.532 853.256 40.532C853.76 40.532 854.228 40.598 854.66 40.73C855.104 40.85 855.494 41.036 855.83 41.288C856.178 41.54 856.46 41.864 856.676 42.26C856.892 42.644 857.024 43.094 857.072 43.61H856.388ZM859.56 40.748H860.37L863.808 49.19L866.976 40.748H867.75L863.79 50.99C863.598 51.446 863.418 51.836 863.25 52.16C863.094 52.496 862.914 52.742 862.71 52.898C862.47 53.09 862.182 53.204 861.846 53.24C861.522 53.288 861.09 53.312 860.55 53.312V52.718C861.042 52.718 861.426 52.676 861.702 52.592C861.978 52.52 862.236 52.364 862.476 52.124C862.608 51.992 862.746 51.746 862.89 51.386C863.034 51.038 863.214 50.558 863.43 49.946L859.56 40.748ZM877.65 37.148H883.122C883.482 37.148 883.878 37.19 884.31 37.274C884.754 37.358 885.162 37.532 885.534 37.796C885.918 38.048 886.236 38.414 886.488 38.894C886.74 39.362 886.866 39.98 886.866 40.748C886.866 41.876 886.518 42.746 885.822 43.358C885.126 43.97 884.13 44.276 882.834 44.276H878.442V50H877.65V37.148ZM878.442 43.592H882.96C883.536 43.592 884.022 43.508 884.418 43.34C884.826 43.16 885.15 42.932 885.39 42.656C885.63 42.38 885.804 42.074 885.912 41.738C886.02 41.402 886.074 41.066 886.074 40.73C886.074 40.49 886.038 40.208 885.966 39.884C885.894 39.548 885.75 39.23 885.534 38.93C885.318 38.618 885.012 38.36 884.616 38.156C884.232 37.94 883.716 37.832 883.068 37.832H878.442V43.592ZM888.891 45.374C888.891 44.714 888.981 44.096 889.161 43.52C889.353 42.932 889.629 42.416 889.989 41.972C890.349 41.528 890.793 41.18 891.321 40.928C891.849 40.664 892.455 40.532 893.139 40.532C893.823 40.532 894.429 40.664 894.957 40.928C895.485 41.18 895.929 41.528 896.289 41.972C896.649 42.416 896.919 42.932 897.099 43.52C897.291 44.096 897.387 44.714 897.387 45.374C897.387 46.034 897.291 46.658 897.099 47.246C896.919 47.834 896.649 48.35 896.289 48.794C895.929 49.226 895.485 49.574 894.957 49.838C894.429 50.09 893.823 50.216 893.139 50.216C892.455 50.216 891.849 50.09 891.321 49.838C890.793 49.574 890.349 49.226 889.989 48.794C889.629 48.35 889.353 47.834 889.161 47.246C888.981 46.658 888.891 46.034 888.891 45.374ZM889.575 45.374C889.575 45.926 889.653 46.46 889.809 46.976C889.965 47.48 890.193 47.93 890.493 48.326C890.793 48.722 891.165 49.04 891.609 49.28C892.053 49.508 892.563 49.622 893.139 49.622C893.715 49.622 894.225 49.508 894.669 49.28C895.113 49.04 895.485 48.722 895.785 48.326C896.085 47.93 896.313 47.48 896.469 46.976C896.625 46.46 896.703 45.926 896.703 45.374C896.703 44.822 896.625 44.294 896.469 43.79C896.313 43.274 896.085 42.818 895.785 42.422C895.485 42.026 895.113 41.714 894.669 41.486C894.225 41.246 893.715 41.126 893.139 41.126C892.563 41.126 892.053 41.246 891.609 41.486C891.165 41.714 890.793 42.026 890.493 42.422C890.193 42.818 889.965 43.274 889.809 43.79C889.653 44.294 889.575 44.822 889.575 45.374ZM901.757 37.148V50H901.073V37.148H901.757ZM906.017 39.002V37.148H906.701V39.002H906.017ZM906.017 50V40.748H906.701V50H906.017ZM917.764 43.61C917.728 43.202 917.62 42.842 917.44 42.53C917.272 42.218 917.05 41.96 916.774 41.756C916.498 41.552 916.174 41.396 915.802 41.288C915.442 41.18 915.052 41.126 914.632 41.126C914.056 41.126 913.546 41.246 913.102 41.486C912.658 41.714 912.286 42.026 911.986 42.422C911.686 42.806 911.458 43.25 911.302 43.754C911.146 44.246 911.068 44.756 911.068 45.284C911.068 45.908 911.14 46.484 911.284 47.012C911.428 47.54 911.65 48.002 911.95 48.398C912.25 48.782 912.622 49.082 913.066 49.298C913.51 49.514 914.032 49.622 914.632 49.622C915.064 49.622 915.46 49.55 915.82 49.406C916.192 49.262 916.516 49.064 916.792 48.812C917.08 48.56 917.314 48.26 917.494 47.912C917.674 47.552 917.794 47.162 917.854 46.742H918.538C918.466 47.294 918.316 47.786 918.088 48.218C917.86 48.65 917.572 49.016 917.224 49.316C916.876 49.604 916.48 49.826 916.036 49.982C915.592 50.138 915.124 50.216 914.632 50.216C913.876 50.216 913.228 50.084 912.688 49.82C912.16 49.544 911.722 49.178 911.374 48.722C911.038 48.266 910.786 47.744 910.618 47.156C910.462 46.556 910.384 45.932 910.384 45.284C910.384 44.636 910.474 44.024 910.654 43.448C910.846 42.872 911.122 42.368 911.482 41.936C911.842 41.504 912.286 41.162 912.814 40.91C913.342 40.658 913.948 40.532 914.632 40.532C915.136 40.532 915.604 40.598 916.036 40.73C916.48 40.85 916.87 41.036 917.206 41.288C917.554 41.54 917.836 41.864 918.052 42.26C918.268 42.644 918.4 43.094 918.448 43.61H917.764ZM920.936 40.748H921.746L925.184 49.19L928.352 40.748H929.126L925.166 50.99C924.974 51.446 924.794 51.836 924.626 52.16C924.47 52.496 924.29 52.742 924.086 52.898C923.846 53.09 923.558 53.204 923.222 53.24C922.898 53.288 922.466 53.312 921.926 53.312V52.718C922.418 52.718 922.802 52.676 923.078 52.592C923.354 52.52 923.612 52.364 923.852 52.124C923.984 51.992 924.122 51.746 924.266 51.386C924.41 51.038 924.59 50.558 924.806 49.946L920.936 40.748Z" fill="black"/>
<line x1="-8.74228e-09" y1="0.9" x2="1440" y2="0.899874" stroke="#979797" stroke-width="0.2"/>
</g>
<defs>
<clipPath id="clip0_133_5198">
<rect width="1440" height="85" fill="white"/>
</clipPath>
</defs>
</svg>
