<svg width="136" height="128" viewBox="0 0 136 128" fill="none" xmlns="http://www.w3.org/2000/svg">
<g clip-path="url(#clip0_133_5159)">
<mask id="mask0_133_5159" style="mask-type:alpha" maskUnits="userSpaceOnUse" x="29" y="14" width="70" height="44">
<path d="M29.2903 14.1108H98.8693V57.9446H29.2903V14.1108Z" fill="white"/>
</mask>
<g mask="url(#mask0_133_5159)">
<path fill-rule="evenodd" clip-rule="evenodd" d="M29.3494 42.6785C31.6227 46.0994 34.4216 49.3746 37.7047 51.9245C39.3483 53.2049 41.1315 54.3062 43.0496 55.0935C44.9707 55.8444 47.0374 56.3049 49.0785 56.6819C53.1814 57.4052 57.4063 57.4594 61.4945 56.6986C65.5905 55.9753 69.5064 54.4518 73.1645 52.4825C76.8137 50.4719 80.2306 48.0411 83.2165 45.1379C86.226 42.2592 88.7946 38.9427 91.1349 35.4834C93.4073 31.9828 95.724 28.4369 97.3173 24.6155C97.6834 23.655 98.0289 22.6718 98.1371 21.6828C98.1853 21.1907 98.1794 20.7006 98.0584 20.2538C97.9354 19.7971 97.6726 19.4714 97.3006 19.0512C96.7337 18.2983 95.7584 17.7826 94.9022 17.2157C94.0165 16.6685 93.1101 16.143 92.1978 15.6372L92.1939 15.6362L92.1516 15.6096C91.1507 14.9502 89.7758 14.7062 88.4984 14.7416C87.8607 14.7691 87.1678 14.8174 86.5961 15.0073C85.9942 15.2234 85.4305 15.5337 84.926 15.9265C82.8534 17.5257 81.2374 19.7401 79.8281 21.9741L79.8379 21.9544L72.6045 36.6044C69.7544 41.3204 65.499 45.1467 60.4739 47.3551C57.9531 48.4449 55.2629 49.0908 52.522 49.2644C49.7918 49.3946 47.0556 49.222 44.3635 48.7497C39.0186 47.7823 33.7455 45.7559 29.3494 42.6805V42.6785ZM29.2903 42.6126C33.866 45.6036 39.0087 47.6204 44.3979 48.5371C47.0748 48.9849 49.7979 49.1355 52.5063 48.9829C55.2087 48.7924 57.8578 48.1354 60.3361 47.0412C65.2667 44.8407 69.4493 40.9867 72.1951 36.3908L79.338 21.7093L79.3488 21.6896C80.7857 19.3887 82.378 17.1547 84.5648 15.4413C85.1196 15.0044 85.7409 14.6595 86.4051 14.4198C87.1147 14.1875 87.781 14.1521 88.4817 14.1137C89.8683 14.0842 91.2855 14.2741 92.5521 15.0929L92.5078 15.0644C93.4359 15.5692 94.3518 16.0962 95.2546 16.6449C96.1334 17.2295 97.1008 17.695 97.834 18.6132C98.1598 18.9685 98.5839 19.4842 98.7296 20.057C98.888 20.6278 98.89 21.2025 98.8408 21.7536C98.7227 22.8588 98.3684 23.8813 97.9974 24.8802C96.3765 28.8375 94.0854 32.3863 91.8199 35.9391C89.4875 39.4505 86.9021 42.8409 83.8277 45.7697C80.7857 48.729 77.2979 51.212 73.5896 53.2571C66.1908 57.4239 57.2873 58.9543 48.9702 57.2724C46.8927 56.8571 44.8427 56.3729 42.8548 55.5668C40.8944 54.7303 39.0894 53.5789 37.442 52.2542C34.1737 49.5503 31.4134 46.2858 29.2903 42.6135" fill="#231F20"/>
</g>
<mask id="mask1_133_5159" style="mask-type:alpha" maskUnits="userSpaceOnUse" x="91" y="0" width="16" height="16">
<path d="M91.8248 0.5H106.239V15.2917H91.8248V0.5Z" fill="white"/>
</mask>
<g mask="url(#mask1_133_5159)">
<path fill-rule="evenodd" clip-rule="evenodd" d="M91.8347 15.2199C93.1013 13.5813 94.3679 11.9693 95.4544 10.247C96.5802 8.57495 97.4571 6.73066 98.5023 4.91688C99.016 4.01344 99.5356 3.11196 100.158 2.25773C100.469 1.83258 100.797 1.41333 101.219 1.05018C101.626 0.656524 102.266 0.461663 102.802 0.503981C103.924 0.533506 104.945 1.21257 105.489 2.12782C106.031 3.05488 106.219 4.11776 106.239 5.14914C106.239 5.15499 106.238 5.16086 106.236 5.16639C106.234 5.17193 106.231 5.17701 106.227 5.18133C106.223 5.18566 106.219 5.18914 106.213 5.19155C106.208 5.19397 106.202 5.19528 106.196 5.1954C106.185 5.19542 106.174 5.19116 106.166 5.18349C106.158 5.17581 106.153 5.16529 106.152 5.15406C106.073 4.13351 105.822 3.10803 105.266 2.27347C104.71 1.44876 103.763 0.915354 102.798 0.946846C101.79 0.87402 101.206 1.76762 100.628 2.58742C100.07 3.42886 99.5947 4.33919 99.1262 5.25149C98.1942 7.05543 97.466 9.05029 96.1856 10.7489C94.9318 12.4259 93.5353 13.9907 91.8967 15.2839C91.892 15.2873 91.8866 15.2898 91.881 15.2911C91.8753 15.2925 91.8694 15.2927 91.8636 15.2918C91.8579 15.2909 91.8524 15.2889 91.8474 15.2858C91.8424 15.2828 91.8381 15.2787 91.8347 15.274C91.8209 15.2583 91.8229 15.2356 91.8347 15.2199Z" fill="#231F20"/>
</g>
<path fill-rule="evenodd" clip-rule="evenodd" d="M96.8243 18.197C96.84 16.647 97.0683 15.1304 97.2957 13.6138C97.5466 12.1012 97.9688 10.622 98.3704 9.14287C98.7623 7.65887 99.2038 6.18839 99.694 4.7339C99.9499 4.00957 100.225 3.28819 100.551 2.58847C100.907 1.93303 101.184 1.10536 101.964 0.781578C101.988 0.774689 102.013 0.783547 102.022 0.806182C102.028 0.825865 102.022 0.850468 102 0.859326L101.98 0.870151C101.331 1.19295 101.081 2.02652 100.795 2.69279C100.53 3.40137 100.313 4.13161 100.116 4.86676C99.7147 6.33477 99.3622 7.81575 99.0593 9.30722C98.7512 10.8012 98.5268 12.3098 98.1637 13.791C97.7789 15.2682 97.4285 16.7533 96.9109 18.2108C96.9091 18.2165 96.9062 18.2217 96.9023 18.2263C96.8985 18.2308 96.8937 18.2345 96.8884 18.2372C96.8831 18.2399 96.8773 18.2414 96.8713 18.2418C96.8654 18.2421 96.8594 18.2413 96.8538 18.2393C96.8361 18.2344 96.8243 18.2147 96.8243 18.197ZM78.1728 33.3036C79.2376 30.2941 80.5131 27.3564 82.0562 24.5388C82.8386 23.1374 83.6446 21.7242 84.738 20.5009C85.8432 19.3603 87.2112 18.1222 88.9098 18.0582C88.9344 18.0563 88.9541 18.0759 88.956 18.1006C88.956 18.1202 88.9393 18.138 88.9216 18.1448C87.4287 18.6979 86.3825 19.874 85.4112 21.0756C84.4634 22.3058 83.5216 23.5645 82.6684 24.898C81.015 27.5926 79.5525 30.4289 78.2545 33.3351C78.2525 33.3406 78.2494 33.3457 78.2455 33.35C78.2415 33.3543 78.2367 33.3577 78.2314 33.3601C78.2261 33.3625 78.2203 33.3638 78.2144 33.3639C78.2086 33.364 78.2028 33.3629 78.1974 33.3607C78.1869 33.3559 78.1786 33.3475 78.1741 33.3369C78.1695 33.3264 78.1691 33.3145 78.1728 33.3036Z" fill="#231F20"/>
</g>
<path d="M48.9591 104.26C48.9271 103.524 48.7671 102.884 48.4791 102.34C48.2071 101.796 47.8311 101.34 47.3511 100.972C46.8711 100.604 46.2951 100.332 45.6231 100.156C44.9671 99.964 44.2471 99.868 43.4631 99.868C42.9831 99.868 42.4631 99.924 41.9031 100.036C41.3591 100.148 40.8471 100.348 40.3671 100.636C39.9031 100.908 39.5191 101.284 39.2151 101.764C38.9111 102.228 38.7591 102.812 38.7591 103.516C38.7591 104.204 38.9271 104.764 39.2631 105.196C39.5991 105.628 40.0391 105.98 40.5831 106.252C41.1271 106.508 41.7511 106.716 42.4551 106.876C43.1591 107.036 43.8711 107.188 44.5911 107.332C45.3271 107.476 46.0391 107.652 46.7271 107.86C47.4311 108.052 48.0551 108.324 48.5991 108.676C49.1591 109.012 49.6071 109.46 49.9431 110.02C50.2791 110.564 50.4471 111.252 50.4471 112.084C50.4471 112.98 50.2551 113.732 49.8711 114.34C49.4871 114.948 48.9991 115.444 48.4071 115.828C47.8311 116.212 47.1831 116.484 46.4631 116.644C45.7591 116.82 45.0791 116.908 44.4231 116.908C43.4151 116.908 42.4711 116.796 41.5911 116.572C40.7111 116.364 39.9431 116.02 39.2871 115.54C38.6311 115.044 38.1111 114.412 37.7271 113.644C37.3591 112.876 37.1831 111.94 37.1991 110.836H38.2551C38.2071 111.78 38.3431 112.58 38.6631 113.236C38.9831 113.876 39.4231 114.404 39.9831 114.82C40.5591 115.236 41.2311 115.54 41.9991 115.732C42.7671 115.908 43.5751 115.996 44.4231 115.996C44.9351 115.996 45.4791 115.932 46.0551 115.804C46.6471 115.676 47.1831 115.46 47.6631 115.156C48.1591 114.852 48.5671 114.452 48.8871 113.956C49.2231 113.46 49.3911 112.836 49.3911 112.084C49.3911 111.364 49.2231 110.78 48.8871 110.332C48.5511 109.868 48.1031 109.5 47.5431 109.228C46.9991 108.94 46.3751 108.716 45.6711 108.556C44.9831 108.38 44.2711 108.22 43.5351 108.076C42.8151 107.932 42.1031 107.764 41.3991 107.572C40.6951 107.38 40.0711 107.124 39.5271 106.804C38.9831 106.468 38.5431 106.044 38.2071 105.532C37.8711 105.004 37.7031 104.332 37.7031 103.516C37.7031 102.7 37.8711 102.004 38.2071 101.428C38.5591 100.836 39.0071 100.364 39.5511 100.012C40.1111 99.644 40.7351 99.38 41.4231 99.22C42.1111 99.044 42.7911 98.956 43.4631 98.956C44.3591 98.956 45.1911 99.06 45.9591 99.268C46.7431 99.46 47.4231 99.772 47.9991 100.204C48.5911 100.62 49.0631 101.164 49.4151 101.836C49.7671 102.508 49.9671 103.316 50.0151 104.26H48.9591ZM55.8223 106.996H55.8703C55.9663 106.692 56.1263 106.356 56.3503 105.988C56.5743 105.62 56.8703 105.284 57.2383 104.98C57.6063 104.66 58.0463 104.396 58.5583 104.188C59.0863 103.98 59.6863 103.876 60.3583 103.876C61.3023 103.876 62.1183 104.052 62.8063 104.404C63.5103 104.756 64.0863 105.228 64.5343 105.82C64.9983 106.412 65.3423 107.1 65.5663 107.884C65.7903 108.668 65.9023 109.492 65.9023 110.356C65.9023 111.3 65.7903 112.164 65.5663 112.948C65.3423 113.732 64.9983 114.412 64.5343 114.988C64.0863 115.548 63.5103 115.988 62.8063 116.308C62.1183 116.628 61.3023 116.788 60.3583 116.788C59.3343 116.788 58.4223 116.564 57.6223 116.116C56.8223 115.668 56.2383 114.94 55.8703 113.932H55.8223V120.916H54.9103V104.164H55.8223V106.996ZM60.3583 115.996C61.1583 115.996 61.8463 115.844 62.4223 115.54C63.0143 115.236 63.4943 114.828 63.8623 114.316C64.2463 113.804 64.5263 113.212 64.7023 112.54C64.8943 111.852 64.9903 111.124 64.9903 110.356C64.9903 109.652 64.9023 108.964 64.7263 108.292C64.5503 107.604 64.2783 106.996 63.9103 106.468C63.5423 105.924 63.0623 105.492 62.4703 105.172C61.8943 104.836 61.1903 104.668 60.3583 104.668C59.5423 104.668 58.8463 104.828 58.2703 105.148C57.6943 105.468 57.2223 105.892 56.8543 106.42C56.5023 106.948 56.2463 107.556 56.0863 108.244C55.9263 108.916 55.8463 109.62 55.8463 110.356C55.8463 111.092 55.9183 111.804 56.0623 112.492C56.2063 113.164 56.4463 113.764 56.7823 114.292C57.1343 114.804 57.5983 115.22 58.1743 115.54C58.7663 115.844 59.4943 115.996 60.3583 115.996ZM70.2163 101.836V99.364H71.1283V101.836H70.2163ZM70.2163 116.5V104.164H71.1283V116.5H70.2163ZM85.2895 107.98C85.2415 107.436 85.0975 106.956 84.8575 106.54C84.6335 106.124 84.3375 105.78 83.9695 105.508C83.6015 105.236 83.1695 105.028 82.6735 104.884C82.1935 104.74 81.6735 104.668 81.1135 104.668C80.3455 104.668 79.6655 104.828 79.0735 105.148C78.4815 105.452 77.9855 105.868 77.5855 106.396C77.1855 106.908 76.8815 107.5 76.6735 108.172C76.4655 108.828 76.3615 109.508 76.3615 110.212C76.3615 111.044 76.4575 111.812 76.6495 112.516C76.8415 113.22 77.1375 113.836 77.5375 114.364C77.9375 114.876 78.4335 115.276 79.0255 115.564C79.6175 115.852 80.3135 115.996 81.1135 115.996C81.6895 115.996 82.2175 115.9 82.6975 115.708C83.1935 115.516 83.6255 115.252 83.9935 114.916C84.3775 114.58 84.6895 114.18 84.9295 113.716C85.1695 113.236 85.3295 112.716 85.4095 112.156H86.3215C86.2255 112.892 86.0255 113.548 85.7215 114.124C85.4175 114.7 85.0335 115.188 84.5695 115.588C84.1055 115.972 83.5775 116.268 82.9855 116.476C82.3935 116.684 81.7695 116.788 81.1135 116.788C80.1055 116.788 79.2415 116.612 78.5215 116.26C77.8175 115.892 77.2335 115.404 76.7695 114.796C76.3215 114.188 75.9855 113.492 75.7615 112.708C75.5535 111.908 75.4495 111.076 75.4495 110.212C75.4495 109.348 75.5695 108.532 75.8095 107.764C76.0655 106.996 76.4335 106.324 76.9135 105.748C77.3935 105.172 77.9855 104.716 78.6895 104.38C79.3935 104.044 80.2015 103.876 81.1135 103.876C81.7855 103.876 82.4095 103.964 82.9855 104.14C83.5775 104.3 84.0975 104.548 84.5455 104.884C85.0095 105.22 85.3855 105.652 85.6735 106.18C85.9615 106.692 86.1375 107.292 86.2015 107.98H85.2895ZM88.9288 104.164H90.0088L94.5928 115.42L98.8168 104.164H99.8488L94.5688 117.82C94.3128 118.428 94.0728 118.948 93.8488 119.38C93.6408 119.828 93.4008 120.156 93.1288 120.364C92.8088 120.62 92.4248 120.772 91.9768 120.82C91.5448 120.884 90.9688 120.916 90.2488 120.916V120.124C90.9048 120.124 91.4168 120.068 91.7848 119.956C92.1528 119.86 92.4968 119.652 92.8168 119.332C92.9928 119.156 93.1768 118.828 93.3688 118.348C93.5608 117.884 93.8008 117.244 94.0888 116.428L88.9288 104.164Z" fill="black"/>
<defs>
<clipPath id="clip0_133_5159">
<rect width="77.4194" height="60" fill="white" transform="translate(29.2903 0.5)"/>
</clipPath>
</defs>
</svg>
