<svg width="136" height="128" viewBox="0 0 136 128" fill="none" xmlns="http://www.w3.org/2000/svg">
<path fill-rule="evenodd" clip-rule="evenodd" d="M73.8132 42.9449L61.1038 25.4675L74.5681 42.3745C74.7229 42.5667 74.6817 42.8544 74.4755 43.0167C74.2702 43.1781 73.979 43.1524 73.825 42.9612C73.8206 42.9562 73.8166 42.9507 73.8132 42.9449" fill="#010202"/>
<path d="M73.8974 42.2542C74.6009 43.1525 75.2489 51.0407 75.2489 51.0407C75.2489 51.0407 79.8604 45.8252 80.9005 38.5116C81.9389 31.198 80.5218 30.2203 79.2915 26.5059C78.0612 22.7915 72.8707 18.0029 70.2149 16.6879C68.2996 15.7401 62.1667 13.5849 58.8444 12.4398C57.6477 12.0299 56.2988 12.7062 55.8738 13.9221C53.9013 19.5732 53.5268 25.6179 55.1535 31.1827C56.1187 34.4821 57.7782 37.5988 60.6166 39.1256C60.6166 39.1256 67.2275 42.4216 71.6295 41.5882C76.0298 40.7548 75.2203 49.1536 75.2203 49.1536" stroke="#010202" stroke-width="0.5" stroke-linecap="round" stroke-linejoin="round"/>
<path fill-rule="evenodd" clip-rule="evenodd" d="M68.9257 58.2987L65.5479 58.8896L62.4073 57.4961L58.9891 57.2493L56.2685 55.1334L53.0068 54.0634L50.8651 51.3481L47.9509 49.5182L46.5111 46.3622L44.1128 43.8774L43.4598 40.4618L41.7178 37.4672L41.8887 33.9936L40.9033 30.6626L41.8878 27.3316L41.7178 23.8579L43.4598 20.8625L44.1128 17.4486L46.5111 14.9638L47.9501 11.807L50.8651 9.97625L53.0068 7.26088L56.2685 6.19181L58.9891 4.07587L62.4073 3.8291L65.5479 2.43555L68.9257 3.02644L72.3035 2.43555L75.4441 3.8291L78.8623 4.07587L81.5829 6.19181L84.8446 7.26173L86.9863 9.9771L89.9005 11.807L91.3403 14.963L93.7386 17.4478L94.3916 20.8633L96.1335 23.8579L95.9627 27.3316L96.9481 30.6626L95.9636 33.9936L96.1335 37.4672L94.3916 40.4627L93.7386 43.8765L91.3403 46.3614L89.9013 49.5182L86.9863 51.3489L84.8446 54.0643L81.5829 55.1334L78.8623 57.2493L75.4441 57.4961L72.3035 58.8896L68.9257 58.2987Z" stroke="black" stroke-width="0.5"/>
<path d="M39.6533 115.588H39.7013L45.6293 99.364H46.6853L40.2773 116.5H39.0533L32.6693 99.364H33.7733L39.6533 115.588ZM49.0074 110.452V110.596C49.0074 111.316 49.1034 112.004 49.2954 112.66C49.4874 113.316 49.7674 113.892 50.1354 114.388C50.5194 114.884 50.9914 115.276 51.5514 115.564C52.1274 115.852 52.7914 115.996 53.5434 115.996C54.7754 115.996 55.7514 115.676 56.4714 115.036C57.1914 114.38 57.6874 113.476 57.9594 112.324H58.8714C58.5994 113.764 58.0074 114.868 57.0954 115.636C56.1994 116.404 55.0074 116.788 53.5194 116.788C52.6074 116.788 51.8074 116.628 51.1194 116.308C50.4474 115.972 49.8794 115.524 49.4154 114.964C48.9674 114.388 48.6314 113.716 48.4074 112.948C48.1834 112.164 48.0714 111.324 48.0714 110.428C48.0714 109.564 48.1834 108.74 48.4074 107.956C48.6474 107.156 48.9994 106.46 49.4634 105.868C49.9274 105.26 50.5034 104.78 51.1914 104.428C51.8954 104.06 52.7194 103.876 53.6634 103.876C54.5274 103.876 55.2874 104.036 55.9434 104.356C56.6154 104.676 57.1754 105.116 57.6234 105.676C58.0714 106.22 58.4074 106.86 58.6314 107.596C58.8714 108.316 58.9914 109.092 58.9914 109.924C58.9914 110.004 58.9834 110.1 58.9674 110.212C58.9674 110.308 58.9674 110.388 58.9674 110.452H49.0074ZM58.0554 109.66C58.0234 108.988 57.9114 108.356 57.7194 107.764C57.5274 107.156 57.2394 106.628 56.8554 106.18C56.4874 105.716 56.0314 105.348 55.4874 105.076C54.9594 104.804 54.3514 104.668 53.6634 104.668C52.9274 104.668 52.2794 104.812 51.7194 105.1C51.1594 105.372 50.6874 105.74 50.3034 106.204C49.9194 106.652 49.6234 107.18 49.4154 107.788C49.2074 108.396 49.0794 109.02 49.0314 109.66H58.0554ZM73.2628 104.164V115.852C73.2628 116.54 73.1828 117.204 73.0228 117.844C72.8628 118.5 72.5828 119.076 72.1828 119.572C71.7988 120.068 71.2628 120.46 70.5748 120.748C69.8868 121.052 69.0148 121.204 67.9588 121.204C67.3028 121.204 66.6868 121.132 66.1108 120.988C65.5348 120.86 65.0308 120.644 64.5988 120.34C64.1668 120.052 63.8148 119.66 63.5428 119.164C63.2868 118.684 63.1428 118.084 63.1108 117.364H64.0228C64.0708 117.908 64.2068 118.372 64.4308 118.756C64.6548 119.14 64.9428 119.452 65.2948 119.692C65.6628 119.948 66.0708 120.132 66.5188 120.244C66.9668 120.356 67.4468 120.412 67.9588 120.412C68.8068 120.412 69.5108 120.284 70.0708 120.028C70.6468 119.772 71.1028 119.436 71.4388 119.02C71.7748 118.62 72.0068 118.156 72.1348 117.628C72.2788 117.116 72.3508 116.596 72.3508 116.068V113.236H72.3028C71.8708 114.148 71.2788 114.844 70.5268 115.324C69.7908 115.804 68.8948 116.044 67.8388 116.044C66.9268 116.044 66.1348 115.892 65.4628 115.588C64.8068 115.268 64.2548 114.836 63.8068 114.292C63.3748 113.732 63.0468 113.084 62.8228 112.348C62.6148 111.612 62.5107 110.812 62.5107 109.948C62.5107 109.132 62.6228 108.356 62.8468 107.62C63.0868 106.884 63.4308 106.244 63.8788 105.7C64.3268 105.14 64.8788 104.7 65.5348 104.38C66.2068 104.044 66.9748 103.876 67.8388 103.876C68.8148 103.876 69.7108 104.124 70.5268 104.62C71.3588 105.116 71.9508 105.82 72.3028 106.732H72.3508V104.164H73.2628ZM67.8388 104.668C67.0868 104.668 66.4308 104.82 65.8708 105.124C65.3268 105.428 64.8708 105.828 64.5028 106.324C64.1508 106.82 63.8788 107.388 63.6868 108.028C63.5108 108.652 63.4228 109.292 63.4228 109.948C63.4228 110.668 63.5108 111.356 63.6868 112.012C63.8788 112.652 64.1588 113.212 64.5268 113.692C64.9108 114.172 65.3748 114.556 65.9188 114.844C66.4788 115.116 67.1188 115.252 67.8388 115.252C68.5908 115.252 69.2468 115.108 69.8068 114.82C70.3668 114.532 70.8308 114.14 71.1988 113.644C71.5828 113.148 71.8628 112.588 72.0388 111.964C72.2308 111.324 72.3268 110.652 72.3268 109.948C72.3268 109.26 72.2308 108.596 72.0388 107.956C71.8628 107.316 71.5828 106.756 71.1988 106.276C70.8308 105.78 70.3668 105.388 69.8068 105.1C69.2468 104.812 68.5908 104.668 67.8388 104.668ZM86.1074 114.052H86.0594C85.9154 114.42 85.7074 114.772 85.4354 115.108C85.1634 115.428 84.8274 115.716 84.4274 115.972C84.0434 116.228 83.6034 116.428 83.1074 116.572C82.6114 116.716 82.0674 116.788 81.4754 116.788C80.1634 116.788 79.1474 116.508 78.4274 115.948C77.7074 115.372 77.3474 114.492 77.3474 113.308C77.3474 112.588 77.4914 112.004 77.7794 111.556C78.0674 111.092 78.4274 110.732 78.8594 110.476C79.3074 110.204 79.7954 110.012 80.3234 109.9C80.8674 109.788 81.3874 109.708 81.8834 109.66L83.2994 109.54C83.9554 109.492 84.4674 109.42 84.8354 109.324C85.2194 109.212 85.5074 109.068 85.6994 108.892C85.8914 108.7 86.0114 108.46 86.0594 108.172C86.1074 107.884 86.1314 107.524 86.1314 107.092C86.1314 106.756 86.0674 106.444 85.9394 106.156C85.8114 105.868 85.6114 105.612 85.3394 105.388C85.0674 105.164 84.7154 104.988 84.2834 104.86C83.8514 104.732 83.3234 104.668 82.6994 104.668C81.5954 104.668 80.6994 104.94 80.0114 105.484C79.3394 106.028 78.9714 106.852 78.9074 107.956H77.9954C78.0594 106.596 78.4914 105.58 79.2914 104.908C80.1074 104.22 81.2594 103.876 82.7474 103.876C84.2354 103.876 85.3154 104.172 85.9874 104.764C86.6754 105.34 87.0194 106.1 87.0194 107.044V114.22C87.0194 114.396 87.0194 114.572 87.0194 114.748C87.0354 114.924 87.0674 115.084 87.1154 115.228C87.1634 115.372 87.2434 115.492 87.3554 115.588C87.4674 115.668 87.6274 115.708 87.8354 115.708C87.9954 115.708 88.2194 115.684 88.5074 115.636V116.404C88.2674 116.468 88.0194 116.5 87.7634 116.5C87.3954 116.5 87.0994 116.452 86.8754 116.356C86.6674 116.26 86.5074 116.132 86.3954 115.972C86.2834 115.812 86.2034 115.628 86.1554 115.42C86.1234 115.196 86.1074 114.956 86.1074 114.7V114.052ZM86.1074 109.492C85.8834 109.764 85.5394 109.948 85.0754 110.044C84.6274 110.14 84.1234 110.212 83.5634 110.26L82.0274 110.404C81.5794 110.452 81.1314 110.524 80.6834 110.62C80.2354 110.7 79.8274 110.844 79.4594 111.052C79.1074 111.26 78.8194 111.548 78.5954 111.916C78.3714 112.268 78.2594 112.732 78.2594 113.308C78.2594 114.22 78.5474 114.9 79.1234 115.348C79.6994 115.78 80.4914 115.996 81.4994 115.996C82.5394 115.996 83.3634 115.812 83.9714 115.444C84.5794 115.06 85.0434 114.628 85.3634 114.148C85.6834 113.652 85.8834 113.18 85.9634 112.732C86.0594 112.268 86.1074 111.956 86.1074 111.796V109.492ZM91.8934 104.164H92.8054V106.804H92.8534C93.0134 106.34 93.2374 105.932 93.5254 105.58C93.8294 105.212 94.1734 104.9 94.5574 104.644C94.9574 104.388 95.3894 104.196 95.8534 104.068C96.3174 103.94 96.7894 103.876 97.2694 103.876C97.9894 103.876 98.5974 103.964 99.0934 104.14C99.6054 104.316 100.021 104.548 100.341 104.836C100.661 105.124 100.909 105.452 101.085 105.82C101.277 106.172 101.413 106.532 101.493 106.9C101.573 107.268 101.621 107.628 101.637 107.98C101.653 108.316 101.661 108.612 101.661 108.868V116.5H100.749V108.7C100.749 108.396 100.725 108.012 100.677 107.548C100.629 107.084 100.485 106.644 100.245 106.228C100.021 105.796 99.6694 105.428 99.1894 105.124C98.7254 104.82 98.0774 104.668 97.2454 104.668C96.5414 104.668 95.9174 104.796 95.3734 105.052C94.8294 105.308 94.3654 105.668 93.9814 106.132C93.5974 106.58 93.3014 107.124 93.0934 107.764C92.9014 108.388 92.8054 109.076 92.8054 109.828V116.5H91.8934V104.164Z" fill="black"/>
</svg>
