<svg width="78" height="61" viewBox="0 0 78 61" fill="none" xmlns="http://www.w3.org/2000/svg">
<path fill-rule="evenodd" clip-rule="evenodd" d="M44.8129 42.9449L32.1035 25.4675L45.5677 42.3745C45.7226 42.5667 45.6814 42.8544 45.4752 43.0167C45.2699 43.1781 44.9787 43.1524 44.8247 42.9612C44.8203 42.9562 44.8163 42.9507 44.8129 42.9449" fill="#010202"/>
<path d="M44.8973 42.2542C45.6008 43.1525 46.2487 51.0407 46.2487 51.0407C46.2487 51.0407 50.8602 45.8252 51.9004 38.5116C52.9388 31.198 51.5217 30.2203 50.2914 26.5059C49.0611 22.7915 43.8706 18.0029 41.2148 16.6879C39.2995 15.7401 33.1666 13.5849 29.8443 12.4398C28.6476 12.0299 27.2987 12.7062 26.8737 13.9221C24.9012 19.5732 24.5267 25.6179 26.1534 31.1827C27.1186 34.4821 28.7781 37.5988 31.6165 39.1256C31.6165 39.1256 38.2274 42.4216 42.6294 41.5882C47.0297 40.7548 46.2201 49.1536 46.2201 49.1536" stroke="#010202" stroke-width="0.5" stroke-linecap="round" stroke-linejoin="round"/>
<path fill-rule="evenodd" clip-rule="evenodd" d="M39.9255 58.2987L36.5477 58.8896L33.4071 57.4961L29.9889 57.2493L27.2683 55.1334L24.0066 54.0634L21.8649 51.3481L18.9508 49.5182L17.5109 46.3622L15.1126 43.8774L14.4596 40.4618L12.7177 37.4672L12.8885 33.9936L11.9031 30.6626L12.8876 27.3316L12.7177 23.8579L14.4596 20.8625L15.1126 17.4486L17.5109 14.9638L18.9499 11.807L21.8649 9.97625L24.0066 7.26088L27.2683 6.19181L29.9889 4.07587L33.4071 3.8291L36.5477 2.43555L39.9255 3.02644L43.3034 2.43555L46.4439 3.8291L49.8621 4.07587L52.5827 6.19181L55.8444 7.26173L57.9861 9.9771L60.9003 11.807L62.3401 14.963L64.7384 17.4478L65.3914 20.8633L67.1334 23.8579L66.9625 27.3316L67.948 30.6626L66.9634 33.9936L67.1334 37.4672L65.3914 40.4627L64.7384 43.8765L62.3401 46.3614L60.9011 49.5182L57.9861 51.3489L55.8444 54.0643L52.5827 55.1334L49.8621 57.2493L46.4439 57.4961L43.3034 58.8896L39.9255 58.2987Z" stroke="black" stroke-width="0.5"/>
</svg>
