<svg width="136" height="128" viewBox="0 0 136 128" fill="none" xmlns="http://www.w3.org/2000/svg">
<path fill-rule="evenodd" clip-rule="evenodd" d="M76.5056 47.3887L87.4922 20.5229L77.6241 47.8199C77.5973 47.8939 77.5563 47.9619 77.5032 48.0201C77.4502 48.0782 77.3862 48.1253 77.315 48.1587C77.2437 48.1921 77.1666 48.2112 77.088 48.2148C77.0094 48.2184 76.9309 48.2065 76.8569 48.1797C76.7829 48.153 76.7149 48.1119 76.6567 48.0589C76.5986 48.0059 76.5515 47.9419 76.5181 47.8707C76.4847 47.7994 76.4656 47.7223 76.462 47.6437C76.4584 47.5651 76.4703 47.4865 76.4971 47.4125L76.5056 47.3887Z" fill="#010202"/>
<path d="M62.394 48.4587C62.394 48.4587 52.802 46.0856 49.3838 42.1925C45.9675 38.2974 40.4571 32.7908 40.9321 9.52403C40.9321 9.52403 44.5416 5.82123 63.7238 16.1719M77.2938 46.9709C76.7226 48.3958 78.5369 58.7142 78.5369 58.7142C78.5369 58.7142 71.1304 53.872 67.4276 44.9453C63.7229 36.0186 65.1488 34.2148 65.4334 28.9918C65.717 23.7679 70.5259 15.6179 73.3625 12.8956C75.4062 10.9328 82.2483 5.77553 85.9625 3.00843C86.2788 2.77328 86.6396 2.60505 87.0231 2.51401C87.4065 2.42296 87.8045 2.41101 88.1927 2.47889C88.5809 2.54677 88.9512 2.69305 89.2809 2.9088C89.6107 3.12455 89.8931 3.40525 90.1108 3.73376C94.4152 10.1684 96.8767 17.7387 96.7159 25.4794C96.6207 30.0703 95.6069 34.6993 92.6171 37.7615C92.6171 37.7615 85.5656 44.5655 79.8667 45.2299C74.1697 45.8943 77.9496 56.2945 77.9496 56.2945L77.2938 46.9709Z" stroke="#010202" stroke-width="0.5" stroke-linecap="round" stroke-linejoin="round"/>
<path fill-rule="evenodd" clip-rule="evenodd" d="M52.3451 19.8471C53.7547 21.244 55.1013 22.7031 56.381 24.22C57.0226 24.9786 57.7032 25.7173 58.2096 26.5902C58.6741 27.4659 59.2224 28.3949 59.2071 29.461C59.207 29.4706 59.2037 29.4798 59.1977 29.4873C59.1917 29.4947 59.1834 29.5 59.1741 29.5021C59.1648 29.5043 59.1551 29.5034 59.1464 29.4994C59.1377 29.4954 59.1306 29.4886 59.1262 29.4801L59.1234 29.4725C58.6741 28.5958 58.0811 27.8447 57.4957 27.0642C56.916 26.2837 56.402 25.4479 55.8404 24.6398C54.686 23.0371 53.4994 21.4579 52.2813 19.9032C52.2777 19.8988 52.2751 19.8938 52.2736 19.8883C52.272 19.8829 52.2716 19.8772 52.2723 19.8716C52.273 19.866 52.2749 19.8606 52.2777 19.8557C52.2806 19.8509 52.2844 19.8466 52.2889 19.8433C52.2971 19.8368 52.3073 19.8336 52.3177 19.8343C52.3281 19.835 52.3378 19.8396 52.3451 19.8471" fill="#010202"/>
<path d="M18.2517 115.588H18.2997L24.2277 99.364H25.2837L18.8757 116.5H17.6517L11.2677 99.364H12.3717L18.2517 115.588ZM27.6059 110.452V110.596C27.6059 111.316 27.7019 112.004 27.8939 112.66C28.0859 113.316 28.3659 113.892 28.7339 114.388C29.1179 114.884 29.5899 115.276 30.1499 115.564C30.7259 115.852 31.3899 115.996 32.1419 115.996C33.3739 115.996 34.3499 115.676 35.0699 115.036C35.7899 114.38 36.2859 113.476 36.5579 112.324H37.4699C37.1979 113.764 36.6059 114.868 35.6939 115.636C34.7979 116.404 33.6059 116.788 32.1179 116.788C31.2059 116.788 30.4059 116.628 29.7179 116.308C29.0459 115.972 28.4779 115.524 28.0139 114.964C27.5659 114.388 27.2299 113.716 27.0059 112.948C26.7819 112.164 26.6699 111.324 26.6699 110.428C26.6699 109.564 26.7819 108.74 27.0059 107.956C27.2459 107.156 27.5979 106.46 28.0619 105.868C28.5259 105.26 29.1019 104.78 29.7899 104.428C30.4939 104.06 31.3179 103.876 32.2619 103.876C33.1259 103.876 33.8859 104.036 34.5419 104.356C35.2139 104.676 35.7739 105.116 36.2219 105.676C36.6699 106.22 37.0059 106.86 37.2299 107.596C37.4699 108.316 37.5899 109.092 37.5899 109.924C37.5899 110.004 37.5819 110.1 37.5659 110.212C37.5659 110.308 37.5659 110.388 37.5659 110.452H27.6059ZM36.6539 109.66C36.6219 108.988 36.5099 108.356 36.3179 107.764C36.1259 107.156 35.8379 106.628 35.4539 106.18C35.0859 105.716 34.6299 105.348 34.0859 105.076C33.5579 104.804 32.9499 104.668 32.2619 104.668C31.5259 104.668 30.8779 104.812 30.3179 105.1C29.7579 105.372 29.2859 105.74 28.9019 106.204C28.5179 106.652 28.2219 107.18 28.0139 107.788C27.8059 108.396 27.6779 109.02 27.6299 109.66H36.6539ZM51.8612 104.164V115.852C51.8612 116.54 51.7812 117.204 51.6212 117.844C51.4612 118.5 51.1812 119.076 50.7812 119.572C50.3972 120.068 49.8612 120.46 49.1732 120.748C48.4852 121.052 47.6132 121.204 46.5572 121.204C45.9012 121.204 45.2852 121.132 44.7092 120.988C44.1332 120.86 43.6292 120.644 43.1972 120.34C42.7652 120.052 42.4132 119.66 42.1412 119.164C41.8852 118.684 41.7412 118.084 41.7092 117.364H42.6212C42.6692 117.908 42.8052 118.372 43.0292 118.756C43.2532 119.14 43.5412 119.452 43.8932 119.692C44.2612 119.948 44.6692 120.132 45.1172 120.244C45.5652 120.356 46.0452 120.412 46.5572 120.412C47.4052 120.412 48.1092 120.284 48.6692 120.028C49.2452 119.772 49.7012 119.436 50.0372 119.02C50.3732 118.62 50.6052 118.156 50.7332 117.628C50.8772 117.116 50.9492 116.596 50.9492 116.068V113.236H50.9012C50.4692 114.148 49.8772 114.844 49.1252 115.324C48.3892 115.804 47.4932 116.044 46.4372 116.044C45.5252 116.044 44.7332 115.892 44.0612 115.588C43.4052 115.268 42.8532 114.836 42.4052 114.292C41.9732 113.732 41.6452 113.084 41.4212 112.348C41.2132 111.612 41.1092 110.812 41.1092 109.948C41.1092 109.132 41.2212 108.356 41.4452 107.62C41.6852 106.884 42.0292 106.244 42.4772 105.7C42.9252 105.14 43.4772 104.7 44.1332 104.38C44.8052 104.044 45.5732 103.876 46.4372 103.876C47.4132 103.876 48.3092 104.124 49.1252 104.62C49.9572 105.116 50.5492 105.82 50.9012 106.732H50.9492V104.164H51.8612ZM46.4372 104.668C45.6852 104.668 45.0292 104.82 44.4692 105.124C43.9252 105.428 43.4692 105.828 43.1012 106.324C42.7492 106.82 42.4772 107.388 42.2852 108.028C42.1092 108.652 42.0212 109.292 42.0212 109.948C42.0212 110.668 42.1092 111.356 42.2852 112.012C42.4772 112.652 42.7572 113.212 43.1252 113.692C43.5092 114.172 43.9732 114.556 44.5172 114.844C45.0772 115.116 45.7172 115.252 46.4372 115.252C47.1892 115.252 47.8452 115.108 48.4052 114.82C48.9652 114.532 49.4292 114.14 49.7972 113.644C50.1812 113.148 50.4612 112.588 50.6372 111.964C50.8292 111.324 50.9252 110.652 50.9252 109.948C50.9252 109.26 50.8292 108.596 50.6372 107.956C50.4612 107.316 50.1812 106.756 49.7972 106.276C49.4292 105.78 48.9652 105.388 48.4052 105.1C47.8452 104.812 47.1892 104.668 46.4372 104.668ZM56.7378 101.836V99.364H57.6498V101.836H56.7378ZM56.7378 116.5V104.164H57.6498V116.5H56.7378ZM67.0591 104.956H64.3711V113.572C64.3711 114.068 64.4271 114.46 64.5391 114.748C64.6511 115.036 64.8191 115.26 65.0431 115.42C65.2831 115.564 65.5631 115.652 65.8831 115.684C66.2191 115.716 66.6031 115.724 67.0351 115.708V116.5C66.5711 116.532 66.1151 116.532 65.6671 116.5C65.2351 116.452 64.8511 116.332 64.5151 116.14C64.1791 115.932 63.9071 115.628 63.6991 115.228C63.5071 114.828 63.4271 114.276 63.4591 113.572V104.956H61.1791V104.164H63.4591V100.324H64.3711V104.164H67.0591V104.956ZM78.888 114.052H78.84C78.696 114.42 78.488 114.772 78.216 115.108C77.944 115.428 77.608 115.716 77.208 115.972C76.824 116.228 76.384 116.428 75.888 116.572C75.392 116.716 74.848 116.788 74.256 116.788C72.944 116.788 71.928 116.508 71.208 115.948C70.488 115.372 70.128 114.492 70.128 113.308C70.128 112.588 70.272 112.004 70.56 111.556C70.848 111.092 71.208 110.732 71.64 110.476C72.088 110.204 72.576 110.012 73.104 109.9C73.648 109.788 74.168 109.708 74.664 109.66L76.08 109.54C76.736 109.492 77.248 109.42 77.616 109.324C78 109.212 78.288 109.068 78.48 108.892C78.672 108.7 78.792 108.46 78.84 108.172C78.888 107.884 78.912 107.524 78.912 107.092C78.912 106.756 78.848 106.444 78.72 106.156C78.592 105.868 78.392 105.612 78.12 105.388C77.848 105.164 77.496 104.988 77.064 104.86C76.632 104.732 76.104 104.668 75.48 104.668C74.376 104.668 73.48 104.94 72.792 105.484C72.12 106.028 71.752 106.852 71.688 107.956H70.776C70.84 106.596 71.272 105.58 72.072 104.908C72.888 104.22 74.04 103.876 75.528 103.876C77.016 103.876 78.096 104.172 78.768 104.764C79.456 105.34 79.8 106.1 79.8 107.044V114.22C79.8 114.396 79.8 114.572 79.8 114.748C79.816 114.924 79.848 115.084 79.896 115.228C79.944 115.372 80.024 115.492 80.136 115.588C80.248 115.668 80.408 115.708 80.616 115.708C80.776 115.708 81 115.684 81.288 115.636V116.404C81.048 116.468 80.8 116.5 80.544 116.5C80.176 116.5 79.88 116.452 79.656 116.356C79.448 116.26 79.288 116.132 79.176 115.972C79.064 115.812 78.984 115.628 78.936 115.42C78.904 115.196 78.888 114.956 78.888 114.7V114.052ZM78.888 109.492C78.664 109.764 78.32 109.948 77.856 110.044C77.408 110.14 76.904 110.212 76.344 110.26L74.808 110.404C74.36 110.452 73.912 110.524 73.464 110.62C73.016 110.7 72.608 110.844 72.24 111.052C71.888 111.26 71.6 111.548 71.376 111.916C71.152 112.268 71.04 112.732 71.04 113.308C71.04 114.22 71.328 114.9 71.904 115.348C72.48 115.78 73.272 115.996 74.28 115.996C75.32 115.996 76.144 115.812 76.752 115.444C77.36 115.06 77.824 114.628 78.144 114.148C78.464 113.652 78.664 113.18 78.744 112.732C78.84 112.268 78.888 111.956 78.888 111.796V109.492ZM85.586 106.9H85.658C85.77 106.5 85.97 106.124 86.258 105.772C86.562 105.42 86.922 105.116 87.338 104.86C87.77 104.604 88.242 104.412 88.754 104.284C89.282 104.14 89.826 104.076 90.386 104.092V105.004C89.906 104.94 89.354 104.988 88.73 105.148C88.122 105.308 87.538 105.66 86.978 106.204C86.754 106.444 86.554 106.676 86.378 106.9C86.218 107.124 86.082 107.372 85.97 107.644C85.858 107.916 85.77 108.22 85.706 108.556C85.642 108.892 85.602 109.292 85.586 109.756V116.5H84.674V104.164H85.586V106.9ZM93.5397 101.836V99.364H94.4517V101.836H93.5397ZM93.5397 116.5V104.164H94.4517V116.5H93.5397ZM107.509 114.052H107.461C107.317 114.42 107.109 114.772 106.837 115.108C106.565 115.428 106.229 115.716 105.829 115.972C105.445 116.228 105.005 116.428 104.509 116.572C104.013 116.716 103.469 116.788 102.877 116.788C101.565 116.788 100.549 116.508 99.8289 115.948C99.1089 115.372 98.7489 114.492 98.7489 113.308C98.7489 112.588 98.8929 112.004 99.1809 111.556C99.4689 111.092 99.8289 110.732 100.261 110.476C100.709 110.204 101.197 110.012 101.725 109.9C102.269 109.788 102.789 109.708 103.285 109.66L104.701 109.54C105.357 109.492 105.869 109.42 106.237 109.324C106.621 109.212 106.909 109.068 107.101 108.892C107.293 108.7 107.413 108.46 107.461 108.172C107.509 107.884 107.533 107.524 107.533 107.092C107.533 106.756 107.469 106.444 107.341 106.156C107.213 105.868 107.013 105.612 106.741 105.388C106.469 105.164 106.117 104.988 105.685 104.86C105.253 104.732 104.725 104.668 104.101 104.668C102.997 104.668 102.101 104.94 101.413 105.484C100.741 106.028 100.373 106.852 100.309 107.956H99.3969C99.4609 106.596 99.8929 105.58 100.693 104.908C101.509 104.22 102.661 103.876 104.149 103.876C105.637 103.876 106.717 104.172 107.389 104.764C108.077 105.34 108.421 106.1 108.421 107.044V114.22C108.421 114.396 108.421 114.572 108.421 114.748C108.437 114.924 108.469 115.084 108.517 115.228C108.565 115.372 108.645 115.492 108.757 115.588C108.869 115.668 109.029 115.708 109.237 115.708C109.397 115.708 109.621 115.684 109.909 115.636V116.404C109.669 116.468 109.421 116.5 109.165 116.5C108.797 116.5 108.501 116.452 108.277 116.356C108.069 116.26 107.909 116.132 107.797 115.972C107.685 115.812 107.605 115.628 107.557 115.42C107.525 115.196 107.509 114.956 107.509 114.7V114.052ZM107.509 109.492C107.285 109.764 106.941 109.948 106.477 110.044C106.029 110.14 105.525 110.212 104.965 110.26L103.429 110.404C102.981 110.452 102.533 110.524 102.085 110.62C101.637 110.7 101.229 110.844 100.861 111.052C100.509 111.26 100.221 111.548 99.9969 111.916C99.7729 112.268 99.6609 112.732 99.6609 113.308C99.6609 114.22 99.9489 114.9 100.525 115.348C101.101 115.78 101.893 115.996 102.901 115.996C103.941 115.996 104.765 115.812 105.373 115.444C105.981 115.06 106.445 114.628 106.765 114.148C107.085 113.652 107.285 113.18 107.365 112.732C107.461 112.268 107.509 111.956 107.509 111.796V109.492ZM113.295 104.164H114.207V106.804H114.255C114.415 106.34 114.639 105.932 114.927 105.58C115.231 105.212 115.575 104.9 115.959 104.644C116.359 104.388 116.791 104.196 117.255 104.068C117.719 103.94 118.191 103.876 118.671 103.876C119.391 103.876 119.999 103.964 120.495 104.14C121.007 104.316 121.423 104.548 121.743 104.836C122.063 105.124 122.311 105.452 122.487 105.82C122.679 106.172 122.815 106.532 122.895 106.9C122.975 107.268 123.023 107.628 123.039 107.98C123.055 108.316 123.063 108.612 123.063 108.868V116.5H122.151V108.7C122.151 108.396 122.127 108.012 122.079 107.548C122.031 107.084 121.887 106.644 121.647 106.228C121.423 105.796 121.071 105.428 120.591 105.124C120.127 104.82 119.479 104.668 118.647 104.668C117.943 104.668 117.319 104.796 116.775 105.052C116.231 105.308 115.767 105.668 115.383 106.132C114.999 106.58 114.703 107.124 114.495 107.764C114.303 108.388 114.207 109.076 114.207 109.828V116.5H113.295V104.164Z" fill="black"/>
</svg>
